<?xml version="1.0" encoding="UTF-8"?> <!-- Generator: Adobe Illustrator 16.0.0, SVG Export Plug-In . SVG Version: 6.00 Build 0) --> <svg xmlns="http://www.w3.org/2000/svg" xmlns:xlink="http://www.w3.org/1999/xlink" version="1.1" id="Capa_1" x="0px" y="0px" width="320px" height="60px" viewBox="0 0 320 60" xml:space="preserve"> <g> <path fill="#FFFFFF" d="M124.197,27.104c-0.593,1.464-1.436,2.721-2.53,3.771c-1.094,1.053-2.432,1.875-4.011,2.469 c-1.58,0.596-3.359,0.893-5.333,0.893c-0.547,0-1.086-0.016-1.619-0.045c-0.531-0.031-1.085-0.107-1.663-0.23 c0,0.428,0.007,1.051,0.023,1.875c0.015,0.824,0.03,1.691,0.045,2.605s0.022,1.812,0.022,2.697v2.148 c0.062,0.274,0.229,0.479,0.504,0.619c0.274,0.135,0.602,0.241,0.982,0.318c0.381,0.076,0.777,0.129,1.189,0.16 c0.411,0.029,0.768,0.061,1.073,0.091v0.503H101.59v-0.503c0.305-0.03,0.671-0.085,1.098-0.16c0.426-0.075,0.83-0.175,1.211-0.297 c0.381-0.123,0.7-0.274,0.96-0.457c0.259-0.183,0.388-0.396,0.388-0.64V17.595c0-0.242-0.022-0.425-0.068-0.548 c-0.046-0.122-0.175-0.259-0.388-0.411c-0.274-0.152-0.718-0.373-1.326-0.662c-0.609-0.29-1.097-0.511-1.463-0.664v-0.274 l6.767-2.651h0.273v5.12l0.046,0.091c0.425-0.576,0.896-1.172,1.412-1.781c0.518-0.61,1.095-1.166,1.733-1.669 c0.637-0.502,1.328-0.922,2.073-1.258c0.744-0.335,1.558-0.503,2.439-0.503c1.428,0,2.665,0.29,3.715,0.869 c1.047,0.579,1.914,1.341,2.599,2.285c0.684,0.945,1.192,2.012,1.526,3.2c0.334,1.189,0.501,2.393,0.501,3.611 C125.086,24.057,124.79,25.642,124.197,27.104 M120.562,20.43c-0.274-1.006-0.691-1.882-1.252-2.629 c-0.563-0.746-1.276-1.34-2.142-1.781c-0.865-0.443-1.875-0.663-3.026-0.663c-0.791,0-1.496,0.145-2.118,0.434 c-0.623,0.289-1.154,0.624-1.594,1.005c-0.441,0.382-0.774,0.771-1.002,1.166c-0.229,0.397-0.342,0.686-0.342,0.869 c0,0.61-0.008,1.257-0.022,1.942c-0.017,0.686-0.023,1.289-0.023,1.807v2.925c0,0.702,0.016,1.403,0.046,2.104 c0.061,0.639,0.166,1.303,0.318,1.988c0.151,0.686,0.41,1.312,0.774,1.875c0.364,0.564,0.865,1.021,1.503,1.371 c0.637,0.352,1.457,0.525,2.46,0.525c0.88,0,1.729-0.244,2.549-0.73c0.82-0.488,1.548-1.159,2.186-2.012 c0.638-0.854,1.146-1.875,1.525-3.063c0.38-1.189,0.57-2.483,0.57-3.887C120.973,22.518,120.836,21.437,120.562,20.43"></path> <path fill="#FFFFFF" d="M155.989,31.676c-0.244,0.549-0.565,1.045-0.961,1.485c-0.396,0.442-0.861,0.778-1.394,1.007 c-0.534,0.229-1.121,0.342-1.76,0.342c-1.037,0-1.96-0.304-2.766-0.914c-0.809-0.609-1.212-1.674-1.212-3.199l-0.093-0.047 c-0.243,0.397-0.57,0.84-0.981,1.326c-0.411,0.487-0.899,0.944-1.463,1.373c-0.564,0.426-1.188,0.768-1.874,1.026 c-0.686,0.261-1.44,0.39-2.264,0.39c-0.486,0-0.981-0.068-1.485-0.205c-0.502-0.138-0.96-0.381-1.371-0.732 c-0.412-0.35-0.748-0.801-1.005-1.348c-0.261-0.549-0.391-1.219-0.391-2.012c0-0.854,0.345-1.677,1.029-2.469 c0.685-0.793,1.532-1.509,2.537-2.149c1.006-0.64,1.897-1.188,2.674-1.646c0.778-0.457,1.456-0.847,2.035-1.165 c0.578-0.321,1.089-0.595,1.531-0.824c0.44-0.228,0.815-0.434,1.12-0.616v-4.708c0-0.062-0.055-0.206-0.16-0.435 c-0.107-0.229-0.29-0.466-0.55-0.709c-0.259-0.243-0.616-0.465-1.073-0.662c-0.456-0.199-1.052-0.298-1.783-0.298 c-0.488,0-0.967,0.085-1.439,0.252s-0.892,0.381-1.258,0.64c-0.365,0.259-0.655,0.519-0.867,0.777 c-0.214,0.259-0.32,0.479-0.32,0.662v2.059c0,0.426-0.222,0.807-0.663,1.142c-0.442,0.336-0.922,0.503-1.439,0.503 c-0.487,0-0.908-0.175-1.258-0.525s-0.526-0.754-0.526-1.211c0-0.366,0.093-0.702,0.274-1.007c0.184-0.304,0.413-0.578,0.686-0.822 c0.275-0.243,0.572-0.457,0.893-0.641c0.319-0.182,0.602-0.349,0.845-0.503c0.792-0.457,1.601-0.898,2.423-1.325 c0.823-0.426,1.607-0.792,2.355-1.098c0.746-0.304,1.431-0.548,2.056-0.731c0.625-0.183,1.135-0.274,1.531-0.274 c0.793,0,1.54,0.207,2.241,0.618c0.699,0.411,1.203,0.922,1.509,1.531c0.121,0.214,0.197,0.587,0.228,1.119 c0.03,0.534,0.045,1.061,0.045,1.578c0,1.097-0.008,2.087-0.021,2.972c-0.016,0.885-0.023,1.735-0.023,2.56 c0,0.822-0.008,1.669-0.022,2.537c-0.016,0.868-0.023,1.821-0.023,2.855c0,1.373,0.236,2.279,0.708,2.721 c0.474,0.443,1.015,0.663,1.623,0.663c0.701,0,1.219-0.144,1.557-0.435c0.334-0.287,0.562-0.662,0.685-1.119h0.274 C156.37,30.564,156.232,31.129,155.989,31.676 M147.897,22.029c-0.549,0.396-1.234,0.816-2.057,1.259 c-0.824,0.44-1.624,0.922-2.4,1.438c-0.777,0.52-1.448,1.09-2.012,1.715c-0.564,0.624-0.846,1.333-0.846,2.126 s0.274,1.509,0.823,2.149c0.549,0.639,1.264,0.959,2.148,0.959c0.792,0,1.492-0.092,2.104-0.273 c0.607-0.184,1.172-0.533,1.69-1.053c0.365-0.334,0.549-0.762,0.549-1.279V22.029z"></path> <path fill="#FFFFFF" d="M180.948,16.476c-0.396,0.442-0.854,0.663-1.371,0.663c-0.487,0-0.876-0.084-1.165-0.251 c-0.29-0.168-0.542-0.357-0.755-0.572c-0.213-0.213-0.441-0.403-0.686-0.571s-0.578-0.251-1.006-0.251 c-0.365,0-0.724,0.13-1.074,0.389s-0.679,0.587-0.984,0.982c-0.303,0.397-0.578,0.846-0.82,1.349 c-0.246,0.503-0.458,0.982-0.641,1.44v13.165c0.092,0.275,0.289,0.488,0.595,0.64c0.304,0.153,0.647,0.261,1.028,0.321 s0.777,0.099,1.188,0.113c0.411,0.016,0.771,0.053,1.074,0.114v0.458h-10.24v-0.458c0.701-0.062,1.304-0.196,1.806-0.411 c0.502-0.213,0.754-0.562,0.754-1.051V17.093c0-0.243-0.021-0.426-0.067-0.549c-0.046-0.121-0.177-0.259-0.39-0.41 c-0.273-0.153-0.594-0.343-0.959-0.572c-0.365-0.229-0.732-0.419-1.098-0.571v-0.274l5.988-2.332h0.273l-0.09,6.354h0.09 c0.153-0.364,0.396-0.896,0.733-1.599c0.333-0.701,0.761-1.41,1.279-2.125c0.519-0.716,1.143-1.333,1.874-1.853 c0.732-0.518,1.568-0.777,2.514-0.777c0.762,0,1.409,0.229,1.944,0.687c0.532,0.456,0.8,1.035,0.8,1.737 C181.544,15.479,181.344,16.034,180.948,16.476"></path> <path fill="#FFFFFF" d="M204.812,15.63h-6.949v12.022c0,1.555,0.336,2.682,1.006,3.385c0.669,0.701,1.539,1.051,2.605,1.051 c0.883,0,1.615-0.145,2.194-0.436c0.578-0.289,1.082-0.738,1.508-1.348l0.275,0.137c-0.183,0.457-0.435,0.938-0.755,1.44 c-0.319,0.502-0.747,0.959-1.28,1.372c-0.533,0.412-1.158,0.73-1.873,0.959c-0.717,0.229-1.563,0.343-2.538,0.343 c-0.64,0-1.254-0.099-1.842-0.297c-0.588-0.196-1.107-0.485-1.559-0.869c-0.451-0.38-0.82-0.808-1.107-1.28 c-0.286-0.472-0.43-0.951-0.43-1.439c0-2.864,0.017-5.585,0.047-8.159c0.029-2.576,0.046-4.869,0.046-6.881h-3.338v-0.503 l6.588-6.263h0.36v3.978h8.457L204.812,15.63z"></path> <path fill="#FFFFFF" d="M228.262,34.465v-0.502c0.823-0.062,1.478-0.162,1.966-0.297c0.487-0.138,0.732-0.451,0.732-0.939v-11.52 c0-1.768-0.336-3.192-1.006-4.273c-0.672-1.082-1.799-1.624-3.383-1.624c-1.006,0-1.846,0.214-2.516,0.641 c-0.669,0.428-1.416,1.052-2.24,1.874v14.994c0.062,0.305,0.168,0.525,0.321,0.664c0.152,0.136,0.334,0.236,0.55,0.297 c0.211,0.061,0.455,0.1,0.73,0.113c0.273,0.017,0.562,0.054,0.867,0.115v0.457h-8.821v-0.457c0.7-0.062,1.303-0.197,1.805-0.412 c0.503-0.213,0.755-0.563,0.755-1.051V16.818c0-0.244-0.022-0.427-0.068-0.549c-0.045-0.121-0.176-0.259-0.389-0.411 c-0.274-0.152-0.595-0.326-0.959-0.525c-0.367-0.197-0.732-0.374-1.099-0.525v-0.274l5.989-2.149h0.273v4.938l0.092,0.047 c0.334-0.52,0.752-1.075,1.254-1.669c0.5-0.596,1.068-1.137,1.707-1.624c0.638-0.485,1.336-0.892,2.097-1.211 c0.758-0.319,1.547-0.48,2.368-0.48c1.76,0,3.111,0.657,4.053,1.966c0.941,1.312,1.413,3.002,1.413,5.074v13.44 c0,0.214,0.099,0.397,0.296,0.55c0.199,0.152,0.436,0.266,0.71,0.342s0.572,0.137,0.892,0.184c0.319,0.045,0.616,0.084,0.892,0.113 v0.412H228.262z"></path> <path fill="#FFFFFF" d="M266.112,29.778c-0.427,0.839-1.005,1.608-1.736,2.31c-0.732,0.701-1.607,1.279-2.629,1.736 c-1.022,0.459-2.156,0.685-3.406,0.685c-1.555,0-2.971-0.288-4.25-0.866c-1.281-0.578-2.371-1.395-3.271-2.445 c-0.899-1.053-1.592-2.287-2.08-3.705c-0.487-1.417-0.729-2.917-0.729-4.502c0-1.279,0.228-2.553,0.685-3.817 c0.458-1.264,1.104-2.399,1.942-3.405c0.839-1.007,1.859-1.821,3.064-2.445c1.202-0.625,2.535-0.938,4-0.938 c1.188,0,2.307,0.152,3.359,0.457c1.051,0.304,1.965,0.77,2.742,1.394c0.777,0.626,1.408,1.41,1.898,2.355 c0.486,0.943,0.776,2.056,0.867,3.337h-14.674c0,0.244-0.016,0.525-0.045,0.845c-0.032,0.32-0.046,0.647-0.046,0.983 c0,1.279,0.183,2.508,0.548,3.68c0.365,1.173,0.898,2.209,1.6,3.109c0.701,0.897,1.584,1.607,2.652,2.126 c1.066,0.519,2.3,0.776,3.703,0.776c1.521,0,2.857-0.389,3.999-1.166c1.143-0.776,1.897-1.729,2.263-2.856l0.365,0.092 C266.813,28.187,266.538,28.94,266.112,29.778 M260.878,14.373c-0.777-0.808-1.821-1.212-3.131-1.212 c-0.854,0-1.623,0.252-2.309,0.755s-1.28,1.091-1.783,1.761s-0.891,1.348-1.166,2.033c-0.273,0.686-0.441,1.211-0.502,1.576h1.873 c0.549,0,1.09-0.007,1.623-0.022c0.534-0.016,1.09-0.029,1.669-0.045c0.579-0.015,1.22-0.023,1.92-0.023 c0.457,0,0.884-0.014,1.28-0.046c0.396-0.029,0.747-0.105,1.052-0.229c0.213-0.243,0.372-0.472,0.479-0.686 c0.106-0.213,0.16-0.533,0.16-0.959C262.044,16.149,261.655,15.181,260.878,14.373"></path> <path fill="#FFFFFF" d="M292.353,16.476c-0.396,0.442-0.854,0.663-1.373,0.663c-0.486,0-0.875-0.084-1.164-0.251 c-0.291-0.168-0.541-0.357-0.754-0.572c-0.215-0.213-0.442-0.403-0.687-0.571s-0.579-0.251-1.006-0.251 c-0.366,0-0.724,0.13-1.073,0.389c-0.352,0.259-0.68,0.587-0.984,0.982c-0.304,0.397-0.58,0.846-0.822,1.349 c-0.245,0.503-0.457,0.982-0.641,1.44v13.165c0.092,0.275,0.289,0.488,0.596,0.64c0.304,0.153,0.646,0.261,1.027,0.321 s0.778,0.099,1.189,0.113c0.41,0.016,0.77,0.053,1.074,0.114v0.458h-10.24v-0.458c0.701-0.062,1.304-0.196,1.806-0.411 c0.502-0.213,0.754-0.562,0.754-1.051V17.093c0-0.243-0.022-0.426-0.067-0.549c-0.047-0.121-0.176-0.259-0.39-0.41 c-0.274-0.153-0.595-0.343-0.96-0.572c-0.365-0.229-0.732-0.419-1.097-0.571v-0.274l5.987-2.332h0.274l-0.091,6.354h0.091 c0.153-0.364,0.396-0.896,0.733-1.599c0.333-0.701,0.76-1.41,1.279-2.125c0.519-0.716,1.143-1.333,1.873-1.853 c0.732-0.518,1.569-0.777,2.515-0.777c0.762,0,1.409,0.229,1.944,0.687c0.531,0.456,0.799,1.035,0.799,1.737 C292.946,15.479,292.747,16.034,292.353,16.476"></path> <path fill="#FFFFFF" d="M317.791,30.875c-0.473,0.869-1.104,1.578-1.897,2.125c-0.793,0.549-1.699,0.947-2.719,1.191 c-1.022,0.242-2.097,0.365-3.224,0.365c-1.342,0-2.606-0.123-3.794-0.365c-1.188-0.244-2.285-0.596-3.292-1.053v-6.034h0.366 c0.242,0.731,0.546,1.501,0.91,2.309c0.365,0.808,0.805,1.555,1.32,2.241c0.516,0.684,1.139,1.248,1.867,1.691 c0.729,0.441,1.594,0.662,2.596,0.662c1.457,0,2.616-0.419,3.482-1.258c0.865-0.838,1.298-2.125,1.298-3.862 c0-0.944-0.296-1.73-0.887-2.354c-0.593-0.625-1.406-1.045-2.437-1.258c-0.82-0.152-1.609-0.319-2.367-0.502 c-0.76-0.183-1.443-0.381-2.051-0.595c-1.152-0.396-2.086-1.081-2.799-2.057c-0.714-0.976-1.07-2.149-1.07-3.52 c0-0.945,0.197-1.798,0.594-2.56c0.396-0.763,0.929-1.419,1.6-1.968c0.67-0.548,1.448-0.968,2.332-1.257 c0.883-0.289,1.828-0.434,2.834-0.434c1.28,0,2.407,0.114,3.383,0.343c0.975,0.228,1.904,0.51,2.788,0.846l0.55,5.668l-0.367,0.092 c-0.426-0.913-0.854-1.76-1.279-2.537c-0.428-0.776-0.898-1.446-1.417-2.011c-0.519-0.563-1.104-0.999-1.761-1.304 c-0.655-0.305-1.41-0.457-2.262-0.457c-0.519,0-1.029,0.092-1.533,0.274c-0.502,0.183-0.943,0.45-1.324,0.8 c-0.381,0.351-0.694,0.793-0.938,1.326c-0.244,0.533-0.365,1.149-0.365,1.852c0,1.127,0.319,1.936,0.959,2.422 c0.641,0.488,1.447,0.854,2.424,1.098c0.67,0.152,1.4,0.312,2.193,0.479c0.793,0.168,1.479,0.328,2.057,0.48 c1.373,0.336,2.537,1.037,3.498,2.102c0.961,1.069,1.44,2.377,1.44,3.933C318.5,28.979,318.263,30.008,317.791,30.875"></path> <path fill="#FFFFFF" d="M21.073,28.248c-0.501,1.266-1.201,2.387-2.099,3.357c-0.899,0.973-1.982,1.73-3.247,2.276 c-1.269,0.546-2.666,0.817-4.198,0.817c-1.354,0-2.644-0.287-3.866-0.861s-2.291-1.371-3.203-2.387 c-0.913-1.016-1.635-2.194-2.165-3.535c-0.53-1.34-0.796-2.731-0.796-4.176c0-1.767,0.294-3.462,0.885-5.081 c0.589-1.618,1.392-3.151,2.407-4.596c1.017-1.442,2.188-2.79,3.514-4.043c1.326-1.252,2.725-2.363,4.196-3.336 c1.474-0.971,2.961-1.812,4.464-2.518c1.502-0.707,2.944-1.251,4.329-1.636l0.354,0.53c-1.149,0.502-2.306,1.127-3.468,1.879 c-1.165,0.75-2.307,1.634-3.425,2.65c-1.12,1.017-2.174,2.165-3.16,3.448c-0.986,1.279-1.878,2.701-2.672,4.263 c0.499-0.147,0.978-0.257,1.436-0.331c0.455-0.074,1.023-0.111,1.701-0.111c1.472,0,2.805,0.243,3.999,0.729 c1.191,0.486,2.215,1.157,3.07,2.01c0.854,0.854,1.517,1.849,1.988,2.982c0.471,1.134,0.707,2.35,0.707,3.646 C21.825,25.641,21.574,26.981,21.073,28.248 M17.447,22.393c-0.267-1.222-0.675-2.326-1.224-3.313 c-0.549-0.986-1.26-1.797-2.137-2.431c-0.876-0.632-1.92-0.949-3.137-0.949c-0.505,0-0.964,0.065-1.38,0.198 s-0.786,0.375-1.112,0.729c-1.156,1.266-1.943,2.702-2.358,4.308c-0.416,1.606-0.623,3.205-0.623,4.794 c0,2.651,0.556,4.707,1.668,6.164c1.113,1.459,2.619,2.188,4.518,2.188c1.81,0,3.293-0.671,4.45-2.011 c1.158-1.342,1.736-3.351,1.736-6.031C17.849,24.831,17.715,23.616,17.447,22.393"></path> <path fill="#FFFFFF" d="M33.622,34.699v-0.486c0.412,0,0.818-0.045,1.215-0.133c0.397-0.088,0.751-0.205,1.061-0.354 c0.31-0.146,0.567-0.346,0.773-0.596s0.31-0.539,0.31-0.862V16.185c0-0.354-0.11-0.647-0.331-0.885 c-0.222-0.234-0.502-0.425-0.839-0.573c-0.341-0.146-0.716-0.258-1.129-0.33c-0.412-0.074-0.823-0.111-1.236-0.111v-0.486h10.736 v0.486c-0.383,0-0.78,0.037-1.192,0.111c-0.412,0.072-0.795,0.19-1.148,0.353s-0.641,0.361-0.861,0.597 c-0.222,0.236-0.331,0.53-0.331,0.884v16.083c0,0.385,0.116,0.691,0.353,0.93c0.235,0.234,0.53,0.426,0.884,0.572 c0.354,0.148,0.735,0.252,1.148,0.311s0.795,0.088,1.148,0.088v0.486H33.622z"></path> <path fill="#FFFFFF" d="M69.854,39.25c-0.708,1.355-1.665,2.512-2.873,3.469c-1.207,0.957-2.591,1.701-4.153,2.232 c-1.561,0.529-3.211,0.795-4.948,0.795c-0.412,0-0.847-0.061-1.304-0.178c-0.458-0.117-0.869-0.285-1.237-0.508 s-0.655-0.5-0.862-0.84c-0.204-0.338-0.309-0.744-0.309-1.215s0.111-0.869,0.331-1.193c0.222-0.325,0.626-0.484,1.215-0.484 c0.501,0,0.929,0.166,1.282,0.5s0.706,0.705,1.061,1.111c0.353,0.406,0.751,0.777,1.192,1.111c0.442,0.334,0.973,0.502,1.591,0.502 c0.236,0,0.699-0.096,1.392-0.287c0.691-0.191,1.415-0.553,2.165-1.082c0.752-0.529,1.415-1.271,1.989-2.227 c0.574-0.957,0.861-2.213,0.861-3.771c0-1.061-0.214-2.002-0.641-2.824s-1.002-1.535-1.725-2.139 c-0.722-0.604-1.561-1.067-2.518-1.391c-0.957-0.322-1.966-0.486-3.026-0.486h-0.574l-0.134-0.264 c0.767-0.589,1.583-1.22,2.453-1.896c0.868-0.677,1.663-1.412,2.387-2.205c0.721-0.796,1.317-1.647,1.788-2.561 c0.472-0.911,0.707-1.912,0.707-3c0-1.204-0.448-2.161-1.347-2.867s-1.996-1.059-3.293-1.059c-1.266,0-2.327,0.198-3.181,0.597 c-0.854,0.398-1.606,1.098-2.253,2.099l-0.398-0.221c0.324-0.707,0.714-1.393,1.171-2.055c0.457-0.664,0.979-1.259,1.569-1.789 c0.589-0.531,1.259-0.958,2.009-1.282c0.753-0.323,1.599-0.486,2.542-0.486c2.003,0,3.646,0.523,4.926,1.568 c1.282,1.047,1.922,2.408,1.922,4.087c0,0.768-0.146,1.488-0.44,2.165c-0.295,0.68-0.715,1.342-1.259,1.99 c-0.546,0.648-1.194,1.296-1.945,1.943c-0.751,0.648-1.584,1.325-2.497,2.033c0.973,0.206,1.908,0.529,2.807,0.972 c0.898,0.441,1.693,0.994,2.385,1.657c0.69,0.663,1.235,1.422,1.635,2.276c0.398,0.854,0.598,1.752,0.598,2.695 C70.914,36.393,70.562,37.895,69.854,39.25"></path> <rect x="86.518" y="11.637" fill="#D1BD7A" width="1.079" height="34.101"></rect> <path fill="#D1BD7A" d="M145.019,51.109c-0.088-0.297-0.196-0.561-0.324-0.793c-0.128-0.23-0.288-0.428-0.479-0.588 c-0.192-0.159-0.426-0.281-0.702-0.365s-0.606-0.126-0.99-0.126c-0.479,0-0.898,0.09-1.254,0.269 c-0.356,0.18-0.652,0.436-0.888,0.762c-0.236,0.328-0.414,0.724-0.534,1.184s-0.18,0.971-0.18,1.529 c0,0.681,0.073,1.259,0.222,1.734c0.147,0.477,0.355,0.862,0.624,1.158c0.268,0.297,0.584,0.512,0.948,0.646 c0.363,0.138,0.762,0.205,1.193,0.205c0.672,0,1.192-0.162,1.561-0.485c0.367-0.323,0.647-0.767,0.84-1.325l0.78,0.42 c-0.305,0.766-0.738,1.314-1.303,1.643c-0.563,0.328-1.242,0.492-2.034,0.492c-0.504,0-0.978-0.082-1.422-0.246 c-0.443-0.164-0.832-0.426-1.164-0.787c-0.331-0.358-0.592-0.822-0.779-1.391c-0.188-0.568-0.282-1.256-0.282-2.064 s0.1-1.495,0.3-2.062c0.2-0.57,0.466-1.033,0.798-1.393s0.714-0.622,1.146-0.786c0.432-0.164,0.88-0.246,1.344-0.246 c0.424,0,0.809,0.04,1.152,0.12s0.653,0.208,0.93,0.385c0.276,0.174,0.522,0.403,0.738,0.682c0.216,0.281,0.408,0.621,0.576,1.021 L145.019,51.109z"></path> <path fill="#D1BD7A" d="M152.818,48.709l3.312,8.543h-0.876l-0.96-2.567h-3.756l-1.02,2.567h-0.84l3.479-8.543H152.818z M154.03,54.012l-1.584-4.211l-1.632,4.211H154.03z"></path> <polygon fill="#D1BD7A" points="159.67,48.709 160.474,48.709 165.358,55.885 165.382,55.885 165.382,48.709 166.198,48.709 166.198,57.253 165.394,57.253 160.51,50.076 160.486,50.076 160.486,57.253 159.67,57.253 "></polygon> <polygon fill="#D1BD7A" points="170.758,48.709 171.562,48.709 176.446,55.885 176.47,55.885 176.47,48.709 177.286,48.709 177.286,57.253 176.481,57.253 171.599,50.076 171.574,50.076 171.574,57.253 170.758,57.253 "></polygon> <path fill="#D1BD7A" d="M184.966,48.709l3.312,8.543h-0.877l-0.959-2.567h-3.756l-1.021,2.567h-0.84l3.479-8.543H184.966z M186.178,54.012l-1.584-4.211l-1.632,4.211H186.178z"></path> <path fill="#D1BD7A" d="M191.638,48.709h3.672c0.56,0,1.008,0.082,1.344,0.246s0.594,0.355,0.775,0.576 c0.179,0.219,0.295,0.441,0.347,0.666c0.052,0.223,0.078,0.396,0.078,0.516c0,0.561-0.124,0.992-0.372,1.295 c-0.248,0.307-0.645,0.509-1.188,0.613v0.023c0.312,0.032,0.586,0.111,0.821,0.24c0.236,0.128,0.433,0.294,0.588,0.498 c0.156,0.203,0.272,0.436,0.349,0.689c0.076,0.256,0.113,0.524,0.113,0.805c0,0.312-0.052,0.611-0.154,0.895 c-0.105,0.283-0.27,0.535-0.493,0.756c-0.224,0.219-0.513,0.395-0.864,0.527s-0.771,0.197-1.26,0.197h-3.756V48.709z M192.453,52.309h2.616c0.624,0,1.109-0.121,1.452-0.365c0.344-0.244,0.516-0.604,0.516-1.074c0-0.529-0.155-0.896-0.468-1.104 c-0.311-0.208-0.788-0.312-1.428-0.312h-2.688V52.309z M192.453,56.508h2.952c0.344,0,0.641-0.045,0.889-0.137 s0.449-0.217,0.605-0.373c0.156-0.155,0.27-0.33,0.342-0.521s0.107-0.393,0.107-0.6c0-0.545-0.189-0.984-0.569-1.32 s-0.933-0.504-1.662-0.504h-2.664V56.508z"></path> <rect x="202.197" y="48.709" fill="#D1BD7A" width="0.815" height="8.545"></rect> <path fill="#D1BD7A" d="M207.874,54.684c0.016,0.361,0.084,0.669,0.204,0.926c0.12,0.256,0.284,0.469,0.492,0.637 s0.456,0.289,0.744,0.365s0.608,0.113,0.96,0.113c0.336,0,0.646-0.043,0.93-0.127c0.284-0.084,0.532-0.2,0.744-0.352 c0.212-0.154,0.376-0.334,0.492-0.547c0.115-0.211,0.174-0.451,0.174-0.714c0-0.327-0.074-0.595-0.221-0.799 c-0.149-0.203-0.342-0.373-0.577-0.511c-0.236-0.135-0.509-0.246-0.816-0.33s-0.62-0.168-0.936-0.252 c-0.316-0.084-0.628-0.18-0.937-0.287c-0.308-0.107-0.58-0.25-0.816-0.426c-0.235-0.176-0.428-0.402-0.575-0.678 c-0.147-0.277-0.222-0.623-0.222-1.039c0-0.391,0.086-0.723,0.258-0.996c0.172-0.271,0.39-0.496,0.654-0.67 c0.264-0.176,0.556-0.305,0.875-0.385c0.32-0.08,0.633-0.119,0.937-0.119c0.728,0,1.356,0.139,1.884,0.42 c0.528,0.279,0.916,0.775,1.164,1.487l-0.756,0.407c-0.176-0.561-0.469-0.963-0.876-1.206c-0.408-0.243-0.88-0.364-1.416-0.364 c-0.216,0-0.438,0.027-0.666,0.09c-0.228,0.059-0.435,0.148-0.618,0.268c-0.184,0.121-0.334,0.271-0.449,0.451 c-0.117,0.18-0.175,0.385-0.175,0.617c0,0.321,0.074,0.58,0.222,0.774c0.148,0.196,0.34,0.358,0.576,0.485 c0.236,0.129,0.508,0.234,0.816,0.314c0.309,0.079,0.62,0.159,0.936,0.238c0.316,0.08,0.629,0.173,0.937,0.275 c0.308,0.105,0.579,0.244,0.815,0.414c0.236,0.172,0.428,0.396,0.576,0.666c0.148,0.273,0.223,0.613,0.223,1.021 c0,0.849-0.276,1.495-0.828,1.944c-0.553,0.449-1.328,0.672-2.328,0.672c-0.432,0-0.826-0.043-1.182-0.127 c-0.356-0.084-0.672-0.219-0.947-0.408c-0.277-0.186-0.508-0.432-0.691-0.73s-0.316-0.666-0.395-1.099L207.874,54.684z"></path> <path fill="#D1BD7A" d="M229.222,51.109c-0.089-0.297-0.195-0.561-0.324-0.793c-0.127-0.23-0.287-0.428-0.48-0.588 c-0.191-0.159-0.426-0.281-0.701-0.365s-0.605-0.126-0.99-0.126c-0.48,0-0.898,0.09-1.254,0.269 c-0.355,0.18-0.652,0.436-0.889,0.762c-0.235,0.328-0.414,0.724-0.533,1.184c-0.12,0.46-0.181,0.971-0.181,1.529 c0,0.681,0.075,1.259,0.223,1.734c0.147,0.477,0.356,0.862,0.624,1.158c0.268,0.297,0.583,0.512,0.947,0.646 c0.365,0.138,0.763,0.205,1.195,0.205c0.672,0,1.191-0.162,1.559-0.485c0.368-0.323,0.648-0.767,0.841-1.325l0.779,0.42 c-0.304,0.766-0.737,1.314-1.302,1.643c-0.563,0.328-1.242,0.492-2.035,0.492c-0.502,0-0.977-0.082-1.42-0.246 c-0.445-0.164-0.832-0.426-1.164-0.787c-0.332-0.358-0.592-0.822-0.781-1.391c-0.188-0.568-0.281-1.256-0.281-2.064 s0.1-1.495,0.301-2.062c0.199-0.57,0.465-1.033,0.797-1.393s0.715-0.622,1.146-0.786s0.88-0.246,1.344-0.246 c0.424,0,0.809,0.04,1.151,0.12c0.345,0.08,0.655,0.208,0.931,0.385c0.275,0.174,0.521,0.403,0.737,0.682 c0.217,0.281,0.408,0.621,0.576,1.021L229.222,51.109z"></path> <path fill="#D1BD7A" d="M233.47,52.98c0-0.566,0.074-1.119,0.222-1.654c0.147-0.537,0.374-1.016,0.679-1.436 s0.688-0.758,1.151-1.014s1.012-0.383,1.644-0.383c0.633,0,1.182,0.127,1.645,0.383c0.464,0.256,0.848,0.594,1.152,1.014 c0.304,0.42,0.529,0.898,0.678,1.436c0.148,0.535,0.222,1.088,0.222,1.654c0,0.568-0.073,1.119-0.222,1.656 c-0.148,0.535-0.374,1.015-0.678,1.435c-0.305,0.421-0.688,0.759-1.152,1.013c-0.463,0.256-1.012,0.385-1.645,0.385 c-0.632,0-1.18-0.129-1.644-0.385c-0.464-0.254-0.847-0.592-1.151-1.013c-0.305-0.42-0.531-0.899-0.679-1.435 C233.544,54.1,233.47,53.549,233.47,52.98 M234.286,52.98c0,0.447,0.055,0.895,0.161,1.339c0.109,0.442,0.28,0.845,0.517,1.198 c0.235,0.357,0.535,0.648,0.899,0.871c0.364,0.225,0.798,0.336,1.302,0.336s0.938-0.111,1.303-0.336 c0.363-0.223,0.664-0.514,0.899-0.871c0.236-0.354,0.408-0.756,0.517-1.198c0.107-0.444,0.162-0.892,0.162-1.339 c0-0.439-0.055-0.885-0.162-1.331c-0.108-0.448-0.28-0.851-0.517-1.206c-0.235-0.357-0.536-0.646-0.899-0.87 c-0.364-0.226-0.799-0.336-1.303-0.336s-0.938,0.11-1.302,0.336c-0.364,0.224-0.664,0.513-0.899,0.87 c-0.236,0.355-0.407,0.758-0.517,1.206C234.341,52.096,234.286,52.541,234.286,52.98"></path> <polygon fill="#D1BD7A" points="244.989,48.709 245.794,48.709 250.678,55.885 250.702,55.885 250.702,48.709 251.518,48.709 251.518,57.253 250.714,57.253 245.829,50.076 245.806,50.076 245.806,57.253 244.989,57.253 "></polygon> <path fill="#D1BD7A" d="M256.413,54.684c0.016,0.361,0.084,0.669,0.204,0.926c0.12,0.256,0.284,0.469,0.492,0.637 s0.456,0.289,0.744,0.365s0.608,0.113,0.96,0.113c0.336,0,0.646-0.043,0.93-0.127c0.284-0.084,0.532-0.2,0.744-0.352 c0.212-0.154,0.376-0.334,0.492-0.547c0.115-0.211,0.174-0.451,0.174-0.714c0-0.327-0.074-0.595-0.221-0.799 c-0.149-0.203-0.342-0.373-0.577-0.511c-0.236-0.135-0.509-0.246-0.816-0.33s-0.62-0.168-0.936-0.252 c-0.316-0.084-0.628-0.18-0.937-0.287c-0.308-0.107-0.58-0.25-0.815-0.426c-0.236-0.176-0.429-0.402-0.576-0.678 c-0.147-0.277-0.222-0.623-0.222-1.039c0-0.391,0.086-0.723,0.258-0.996c0.172-0.271,0.39-0.496,0.654-0.67 c0.264-0.176,0.556-0.305,0.875-0.385c0.32-0.08,0.633-0.119,0.937-0.119c0.728,0,1.356,0.139,1.884,0.42 c0.528,0.279,0.916,0.775,1.164,1.487l-0.756,0.407c-0.176-0.561-0.468-0.963-0.876-1.206s-0.88-0.364-1.416-0.364 c-0.216,0-0.438,0.027-0.666,0.09c-0.228,0.059-0.435,0.148-0.618,0.268c-0.184,0.121-0.334,0.271-0.449,0.451 c-0.117,0.18-0.175,0.385-0.175,0.617c0,0.321,0.074,0.58,0.222,0.774c0.148,0.196,0.34,0.358,0.576,0.485 c0.236,0.129,0.508,0.234,0.816,0.314c0.309,0.079,0.62,0.159,0.936,0.238c0.316,0.08,0.629,0.173,0.937,0.275 c0.308,0.105,0.58,0.244,0.815,0.414c0.236,0.172,0.428,0.396,0.576,0.666c0.148,0.273,0.223,0.613,0.223,1.021 c0,0.849-0.276,1.495-0.828,1.944c-0.553,0.449-1.328,0.672-2.328,0.672c-0.432,0-0.826-0.043-1.182-0.127 c-0.356-0.084-0.672-0.219-0.947-0.408c-0.277-0.186-0.508-0.432-0.691-0.73s-0.316-0.666-0.395-1.099L256.413,54.684z"></path> <path fill="#D1BD7A" d="M272.229,54.48c0,0.488-0.073,0.919-0.222,1.289c-0.148,0.373-0.36,0.686-0.635,0.938 c-0.277,0.252-0.609,0.442-0.998,0.57c-0.387,0.128-0.817,0.191-1.289,0.191c-0.473,0-0.902-0.063-1.29-0.191 s-0.72-0.318-0.996-0.57s-0.488-0.564-0.636-0.938c-0.148-0.37-0.223-0.801-0.223-1.289v-5.771h0.816v5.748 c0,0.416,0.062,0.768,0.186,1.055c0.125,0.289,0.291,0.523,0.498,0.703c0.209,0.18,0.454,0.311,0.738,0.389 c0.284,0.08,0.586,0.121,0.906,0.121s0.623-0.041,0.906-0.121c0.283-0.078,0.529-0.209,0.737-0.389s0.374-0.414,0.498-0.703 c0.124-0.287,0.187-0.639,0.187-1.055v-5.748h0.815V54.48z"></path> <polygon fill="#D1BD7A" points="276.681,48.709 277.497,48.709 277.497,56.509 282.213,56.509 282.213,57.253 276.681,57.253 "></polygon> <polygon fill="#D1BD7A" points="283.833,48.709 290.001,48.709 290.001,49.453 287.325,49.453 287.325,57.253 286.509,57.253 286.509,49.453 283.833,49.453 "></polygon> <rect x="293.697" y="48.709" fill="#D1BD7A" width="0.815" height="8.545"></rect> <polygon fill="#D1BD7A" points="299.037,48.709 299.841,48.709 304.726,55.885 304.749,55.885 304.749,48.709 305.565,48.709 305.565,57.253 304.761,57.253 299.878,50.076 299.854,50.076 299.854,57.253 299.037,57.253 "></polygon> <path fill="#D1BD7A" d="M315.993,51.061c-0.207-0.641-0.502-1.104-0.882-1.393c-0.38-0.287-0.882-0.431-1.506-0.431 c-0.545,0-1.011,0.11-1.397,0.337c-0.389,0.223-0.709,0.512-0.961,0.869c-0.252,0.355-0.438,0.758-0.558,1.206 c-0.12,0.446-0.181,0.892-0.181,1.331c0,0.447,0.055,0.895,0.162,1.339c0.108,0.442,0.28,0.845,0.517,1.198 c0.235,0.357,0.535,0.646,0.899,0.871s0.799,0.336,1.303,0.336c0.463,0,0.859-0.084,1.188-0.252s0.596-0.385,0.805-0.646 c0.207-0.266,0.357-0.562,0.449-0.89s0.139-0.647,0.139-0.96v-0.469h-3.168v-0.744h3.888v4.488h-0.72v-1.236h-0.024 c-0.104,0.266-0.246,0.488-0.427,0.673c-0.18,0.185-0.383,0.335-0.611,0.45s-0.473,0.199-0.732,0.252 c-0.26,0.052-0.521,0.078-0.785,0.078c-0.625,0-1.168-0.119-1.633-0.354c-0.463-0.236-0.848-0.559-1.151-0.966 s-0.532-0.886-0.685-1.429c-0.152-0.545-0.228-1.125-0.228-1.74c0-0.574,0.075-1.135,0.228-1.674 c0.152-0.541,0.388-1.018,0.709-1.434c0.319-0.416,0.719-0.75,1.199-1.002c0.479-0.252,1.053-0.377,1.717-0.377 c0.815,0,1.479,0.174,1.992,0.526c0.512,0.353,0.924,0.894,1.235,1.62L315.993,51.061z"></path> </g> </svg> 